<svg width="32" height="32" viewBox="0 0 32 32" fill="none" xmlns="http://www.w3.org/2000/svg">
<path d="M2 29C2 30.6562 3.34375 32 5 32H27C28.6562 32 30 30.6562 30 29V12H2V29ZM22 16.75C22 16.3375 22.3375 16 22.75 16H25.25C25.6625 16 26 16.3375 26 16.75V19.25C26 19.6625 25.6625 20 25.25 20H22.75C22.3375 20 22 19.6625 22 19.25V16.75ZM22 24.75C22 24.3375 22.3375 24 22.75 24H25.25C25.6625 24 26 24.3375 26 24.75V27.25C26 27.6625 25.6625 28 25.25 28H22.75C22.3375 28 22 27.6625 22 27.25V24.75ZM14 16.75C14 16.3375 14.3375 16 14.75 16H17.25C17.6625 16 18 16.3375 18 16.75V19.25C18 19.6625 17.6625 20 17.25 20H14.75C14.3375 20 14 19.6625 14 19.25V16.75ZM14 24.75C14 24.3375 14.3375 24 14.75 24H17.25C17.6625 24 18 24.3375 18 24.75V27.25C18 27.6625 17.6625 28 17.25 28H14.75C14.3375 28 14 27.6625 14 27.25V24.75ZM6 16.75C6 16.3375 6.3375 16 6.75 16H9.25C9.6625 16 10 16.3375 10 16.75V19.25C10 19.6625 9.6625 20 9.25 20H6.75C6.3375 20 6 19.6625 6 19.25V16.75ZM6 24.75C6 24.3375 6.3375 24 6.75 24H9.25C9.6625 24 10 24.3375 10 24.75V27.25C10 27.6625 9.6625 28 9.25 28H6.75C6.3375 28 6 27.6625 6 27.25V24.75ZM27 4H24V1C24 0.45 23.55 0 23 0H21C20.45 0 20 0.45 20 1V4H12V1C12 0.45 11.55 0 11 0H9C8.45 0 8 0.45 8 1V4H5C3.34375 4 2 5.34375 2 7V10H30V7C30 5.34375 28.6562 4 27 4Z" fill="black"/>
</svg>
