<svg xmlns="http://www.w3.org/2000/svg" width="51.4" height="51.318" viewBox="0 0 51.4 51.318"><path d="M270.763,13.713a13.327,13.327,0,0,0-13.7-13.59Q245.091.1,233.124.123a13.372,13.372,0,0,0-13.7,13.61q-.052,12.051,0,24.1a13.369,13.369,0,0,0,13.558,13.581c4.045.026,8.09,0,12.136,0,3.989,0,7.978.017,11.967,0a13.313,13.313,0,0,0,13.684-13.6q.067-12.051,0-24.1m-9.5,3.47a5.6,5.6,0,0,0-1.833,4.133C257.545,38.4,240,44.507,227.718,37.09c3.61-.007,7.046-.545,10.1-3.127-3.21-.513-5.594-1.818-6.573-4.953l2.417-.14c-3.215-1.351-5.1-3.469-5.091-7.171l2.728.693a8.229,8.229,0,0,1-1.811-9.685c4.172,4.024,8.721,7.028,14.7,7.468.045-.852.054-1.4.107-1.95.543-5.654,7.021-8.915,11.731-5.747a3.17,3.17,0,0,0,3.643.271,4.429,4.429,0,0,1,2.061-.5l-2.187,3.353,3.333-.973.245.318a15.426,15.426,0,0,1-1.864,2.231" transform="translate(-219.397 -0.112)" fill="#fff"/></svg>