<svg xmlns="http://www.w3.org/2000/svg" xmlns:xlink="http://www.w3.org/1999/xlink" width="70.525" height="70.525" viewBox="0 0 70.525 70.525"><defs><clipPath id="a"><rect width="70.525" height="70.525" fill="#da0071" stroke="#fff" stroke-width="2"/></clipPath></defs><g transform="translate(0 0)" clip-path="url(#a)"><path d="M69.509,35.005A34.5,34.5,0,1,1,35,.5,34.5,34.5,0,0,1,69.509,35.005Z" transform="translate(0.258 0.257)" fill="#da0071"/><path d="M35,70.51a35.514,35.514,0,0,1-13.82-68.22A35.514,35.514,0,0,1,48.824,67.72,35.284,35.284,0,0,1,35,70.51ZM35,1.5A33.514,33.514,0,0,0,21.963,65.878,33.514,33.514,0,0,0,48.045,4.133,33.3,33.3,0,0,0,35,1.5Z" transform="translate(0.258 0.257)" fill="#fff"/></g><text transform="translate(35.262 50.262)" fill="#fff" font-size="43" font-family="Poppins-Bold, Poppins" font-weight="700"><tspan x="-8.428" y="0">!</tspan></text></svg>