<svg xmlns="http://www.w3.org/2000/svg" width="51.348" height="51.342" viewBox="0 0 51.348 51.342"><path d="M490.246,12.807A12.693,12.693,0,0,0,477.448.114q-12.8-.052-25.6,0a12.666,12.666,0,0,0-12.888,12.919c-.028,4.211-.005,8.422-.005,12.632,0,4.323-.033,8.646.007,12.968A12.6,12.6,0,0,0,451.65,51.393q12.968.09,25.937-.013a12.632,12.632,0,0,0,12.658-12.636q.09-12.968,0-25.938M483.5,34.651a9.777,9.777,0,0,1-10.033,10.005q-1.116.012-2.232.014c-2.232.006-4.464-.008-6.7-.008s-4.464.016-6.7.009q-1.116,0-2.232-.016a9.723,9.723,0,0,1-9.906-9.929q-.063-9.01,0-18.021a9.735,9.735,0,0,1,10-9.844q8.843-.035,17.685,0a9.82,9.82,0,0,1,10.11,10.108q.049,8.843,0,17.685" transform="translate(-438.941 -0.089)" fill="#fff"/><path d="M499.764,45.636c0-2.864.015-5.728,0-8.592-.03-4.58-2.648-7.183-7.241-7.189q-8.422-.012-16.845.013c-4.454.007-7.184,2.619-7.228,7.062-.057,5.727-.046,11.455,0,17.182.03,4.166,2.641,6.956,6.778,7.031q8.925.163,17.856,0c4.1-.082,6.632-2.824,6.681-6.912.034-2.863.007-5.727.008-8.591m-15.511,9.588a9.737,9.737,0,1,1,9.617-9.737,9.737,9.737,0,0,1-9.617,9.737m9.839-17.634a2.254,2.254,0,0,1,.038-4.506,2.253,2.253,0,0,1-.038,4.506" transform="translate(-458.474 -19.819)" fill="#fff"/><path d="M502.142,69.988a6.447,6.447,0,0,1,.367-12.889,6.447,6.447,0,1,1-.367,12.889" transform="translate(-476.718 -37.88)" fill="#fff"/></svg>