<svg xmlns="http://www.w3.org/2000/svg" width="53.915" height="68.603" viewBox="0 0 53.915 68.603"><path d="M6.682,27.705c5.173,4.2,11.525,9.348,19.155,8.691a17.343,17.343,0,0,0,3.724-.823,10.689,10.689,0,0,1-2.257.242,10.078,10.078,0,0,1-10.263-9.883,9.892,9.892,0,0,1,6.368-9.144L40.242,3.118c-.43-.236-.866-.462-1.31-.672A26.115,26.115,0,0,0,27.3,0,26.115,26.115,0,0,0,15.677,2.446,27.643,27.643,0,0,0,.666,22.086a59.875,59.875,0,0,0,6.016,5.619" transform="translate(-0.346 0)" fill="#6da819"/><path d="M29.214,59.532a17.338,17.338,0,0,1-3.724.823c-7.63.657-13.983-4.5-19.156-8.691A59.874,59.874,0,0,1,.319,46.045c-.025.148-.052.3-.075.445-1.637,10.895,5.135,20.453,14.7,32.383a54.868,54.868,0,0,0,13.01-8.513c4.791-4.267,6.554-7.521,7.477-9.743a26.981,26.981,0,0,0,1.713-9.546,10.035,10.035,0,0,1-7.931,8.461" transform="translate(0 -23.959)" fill="#009db3"/><path d="M56.528,42.084a34.6,34.6,0,0,0-8.36-6.015A9.827,9.827,0,0,1,53.434,44.7a9.671,9.671,0,0,1-.075,1.18,26.983,26.983,0,0,1-1.714,9.546c-.923,2.223-2.685,5.477-7.477,9.743a54.86,54.86,0,0,1-13.009,8.513q1.46,1.821,3,3.719a123.4,123.4,0,0,0,9.011,9.97,123.4,123.4,0,0,0,9.011-9.97c5.614-6.937,10.535-13.02,13.8-18.891a35.783,35.783,0,0,0-9.451-16.426" transform="translate(-16.212 -18.768)" fill="#da0071"/><path d="M78.688,25.914A27.641,27.641,0,0,0,64.913,6.5L48.08,20.171a10.636,10.636,0,0,1,8.37.248l-.009,0,.009,0c.178.083.352.173.524.265a34.6,34.6,0,0,1,8.36,6.015,35.782,35.782,0,0,1,9.451,16.427c3.19-5.74,4.8-11.278,3.9-17.211" transform="translate(-25.017 -3.383)" fill="#f78b00"/></svg>