<svg xmlns="http://www.w3.org/2000/svg" width="51.327" height="51.316" viewBox="0 0 51.327 51.316"><path d="M709.532,25.685h-.014c0-3.876-.009-7.753,0-11.63C709.542,5.9,703.824.145,695.669.138c-7.978-.006-15.956.012-23.934.005a13.348,13.348,0,0,0-13.5,13.451q-.051,12.051-.015,24.1a13.321,13.321,0,0,0,13.723,13.738q11.967.037,23.934,0a13.269,13.269,0,0,0,13.646-13.614c.018-4.045,0-8.09,0-12.136m-9.166,4.647a7.244,7.244,0,0,1-6.99,7.232c-3.141.1-6.289.021-9.433.021V37.6c-2.976,0-5.953.023-8.929-.005a7.354,7.354,0,0,1-7.625-7.5q-.105-4.294,0-8.591a7.386,7.386,0,0,1,7.78-7.526q8.76-.023,17.52,0a7.322,7.322,0,0,1,7.679,7.592c.029,2.92.038,5.84,0,8.759" transform="translate(-658.21 -0.137)" fill="#fff"/><path d="M733.269,65.7c-2.96,1.787-5.637,3.405-8.318,5.015a2.439,2.439,0,0,1-.556.148V60.335l8.874,5.364" transform="translate(-702.083 -40.042)" fill="#fff"/></svg>