<svg xmlns="http://www.w3.org/2000/svg" xmlns:xlink="http://www.w3.org/1999/xlink" width="104.123" height="76.24" viewBox="0 0 104.123 76.24"><defs><clipPath id="a"><rect width="104.123" height="76.24" fill="none"/></clipPath></defs><g clip-path="url(#a)"><path d="M0,50.739c1.027-4.271,2.417-8.339,5.258-11.85,7.678-9.487,22.828-11.322,31.776-3.637-3.922,3.788-7.172,8.087-8.365,13.48A61.749,61.749,0,0,0,27.5,59c-.193,3.907-.044,7.832-.044,12.032H21.982c-5.859,0-11.717-.047-17.574.027C2.458,71.082.935,70.586,0,68.789Z" transform="translate(0 5.182)" fill="#161615"/><path d="M94.164,67.288a4.257,4.257,0,0,1-4.17,2.265c-9.085-.053-18.169-.014-27.255-.029-3.146-.006-4.235-1.043-4.189-4.12.057-3.84-.153-7.737.429-11.5A17.317,17.317,0,0,1,76.266,39.292a17.646,17.646,0,0,1,17.471,14.2,11.121,11.121,0,0,0,.427,1.3Z" transform="translate(9.959 6.683)" fill="#161615"/><path d="M56.518,70.3c-8.156,0-16.008.033-23.86-.028-1.574-.012-3.045-.751-3.021-2.548.074-5.766-.516-11.706.658-17.259C33.427,35.645,52.067,29.72,63.644,39.484a2.832,2.832,0,0,1,.344.58A24.239,24.239,0,0,0,56.8,54.308c-.348,2.971-.229,6-.28,9-.037,2.228-.007,4.458-.007,6.994" transform="translate(5.027 5.902)" fill="#161615"/><path d="M37.864,15.889a15.77,15.77,0,0,1-31.539.066,15.77,15.77,0,1,1,31.539-.066" transform="translate(1.076 0)" fill="#161615"/><path d="M49.512,7.34A14.193,14.193,0,1,1,35.193,21.429,14.128,14.128,0,0,1,49.512,7.34" transform="translate(5.986 1.248)" fill="#161615"/><path d="M75.55,40.229a12.42,12.42,0,0,1-12.161-12.27A12.154,12.154,0,0,1,87.7,28.15,12.489,12.489,0,0,1,75.55,40.229" transform="translate(10.783 2.71)" fill="#161615"/></g></svg>