<svg xmlns="http://www.w3.org/2000/svg" width="51.405" height="51.392" viewBox="0 0 51.405 51.392"><path d="M29.27,51.332V33.14c1.707,0,3.319-.033,4.929.013.84.025,1.18-.269,1.283-1.125.254-2.11.612-4.207.962-6.538H29.276c0-2.161-.135-4.12.041-6.05.15-1.656,1.38-2.547,3.176-2.665.727-.048,1.46-.02,2.19-.022s1.432,0,2.262,0V9.086c-3.255.263-6.552.135-9.637.88-3.834.925-6.2,4.692-6.276,8.843-.042,2.175-.007,4.353-.007,6.674H14.512v7.735h6.364V51.371c-3.978-.246-8.014.56-11.948-.782A13.146,13.146,0,0,1,.1,38.745c-.121-8.7-.159-17.415.009-26.119A13.13,13.13,0,0,1,12.913.074q12.805-.149,25.614,0A13.15,13.15,0,0,1,51.316,12.812q.185,12.889,0,25.783a13.171,13.171,0,0,1-12.622,12.72c-3.081.1-6.168.017-9.425.017" transform="translate(0 0)" fill="#fff"/></svg>