<svg xmlns="http://www.w3.org/2000/svg" xmlns:xlink="http://www.w3.org/1999/xlink" width="110" height="85" viewBox="0 0 110 85"><defs><clipPath id="a"><rect width="53.395" height="43.225" fill="#da0071"/></clipPath></defs><g fill="#fff" stroke="#da0071" stroke-width="1"><rect width="110" height="85" rx="14" stroke="none"/><rect x="0.5" y="0.5" width="109" height="84" rx="13.5" fill="none"/></g><g transform="translate(28.279 20.772)"><g clip-path="url(#a)"><path d="M53.386,12.065c0-2.9-1.291-4.05-4.547-4.064C44.4,7.982,39.969,8,35.225,8c0-1.352.02-2.422,0-3.492C35.158,1.659,33.5.113,30.346.043Q28.523,0,26.7,0T23.048.043c-3.154.07-4.812,1.616-4.875,4.462-.024,1.069,0,2.139,0,3.492C13.425,8,8.99,7.982,4.556,8,1.3,8.015.013,9.164.009,12.065q-.019,13.509,0,27.018c0,2.989,1.281,4.117,4.7,4.13,5.523.021,11.046.009,16.568.01l5.417,0,5.417,0c5.522,0,11.045.011,16.568-.01,3.424-.013,4.7-1.142,4.7-4.13q.015-13.509,0-27.018M7.224,41.241c-.747.035-1.436.094-2.124.095-2.641,0-2.976-.286-2.977-2.615q-.01-12.543-.005-25.086c0-3.885.306-4.115,5.107-3.6Zm5.19.058H9.643V10.033h2.77ZM26.2,1.892l.5,0,.5,0c5.944,0,6.311.352,5.843,5.6a2.068,2.068,0,0,1-.187.372H20.541a2.068,2.068,0,0,1-.187-.372c-.468-5.25-.1-5.6,5.843-5.6m.6,17.06c1.512.006,2.343.725,2.428,1.9.143,1.994.039,4,.039,6.069H24.128c0-2.067-.1-4.075.039-6.069.084-1.175.915-1.894,2.428-1.9.036,0,.067,0,.1.006s.067-.006.1-.006M38.483,41.2H14.911V9.992H25.492v6.8c-2.645,1.057-3.847,2.928-3.538,5.651a37.453,37.453,0,0,1,.029,4.945c-.02,1.042.488,1.5,1.675,1.482q1.52-.024,3.04-.024t3.039.024c1.187.018,1.695-.44,1.675-1.482a37.526,37.526,0,0,1,.028-4.945c.309-2.724-.893-4.594-3.537-5.651v-6.8H38.483Zm5.268.1h-2.77V10.033h2.77Zm7.522-2.579c0,2.33-.336,2.619-2.977,2.615-.689,0-1.378-.06-2.124-.095V10.032c4.8-.514,5.107-.284,5.107,3.6q0,12.543-.005,25.086" transform="translate(0)" fill="#da0071"/></g></g></svg>