<svg xmlns="http://www.w3.org/2000/svg" xmlns:xlink="http://www.w3.org/1999/xlink" width="45.109" height="36.661" viewBox="0 0 45.109 36.661"><defs><clipPath id="a"><rect width="45.109" height="36.661" fill="#767676" stroke="#707070" stroke-width="1"/></clipPath></defs><g clip-path="url(#a)"><path d="M45.1,10.233c0-2.461-1.091-3.435-3.841-3.447-3.746-.016-7.493,0-11.5,0,0-1.147.017-2.054,0-2.961C29.7,1.407,28.3.1,25.637.036Q24.1,0,22.554,0T19.471.036c-2.664.059-4.065,1.37-4.119,3.784-.02.907,0,1.814,0,2.961-4.008,0-7.754-.012-11.5,0C1.1,6.8.011,7.772.007,10.233q-.016,11.457,0,22.915c0,2.535,1.082,3.492,3.975,3.5,4.666.018,9.332.008,14,.008l4.576,0,4.576,0c4.665,0,9.331.01,14-.008,2.892-.011,3.972-.968,3.975-3.5q.013-11.457,0-22.915M6.1,34.978c-.631.03-1.213.08-1.795.08-2.231,0-2.514-.242-2.515-2.218q-.009-10.638,0-21.277c0-3.3.259-3.49,4.314-3.054Zm4.385.049H8.147V8.51h2.34ZM22.132,1.6l.422,0,.422,0c5.021,0,5.332.3,4.936,4.751a1.757,1.757,0,0,1-.158.316h-10.4a1.757,1.757,0,0,1-.158-.316C16.8,1.9,17.111,1.605,22.132,1.6m.509,14.47c1.278,0,1.98.615,2.051,1.611.121,1.691.033,3.394.033,5.148H20.383c0-1.753-.088-3.456.033-5.148.071-1,.773-1.606,2.051-1.611.031,0,.057,0,.087,0s.056,0,.087,0m9.87,18.869H12.6V8.474h8.939v5.765a4.249,4.249,0,0,0-2.989,4.793,31.891,31.891,0,0,1,.024,4.194c-.017.884.412,1.273,1.415,1.257q1.284-.02,2.568-.02t2.568.02c1,.015,1.432-.373,1.415-1.257a31.954,31.954,0,0,1,.024-4.194,4.248,4.248,0,0,0-2.988-4.793V8.474h8.939Zm4.45.084h-2.34V8.51h2.34Zm6.354-2.187c0,1.976-.284,2.221-2.515,2.218-.582,0-1.164-.051-1.795-.08V8.509c4.055-.436,4.315-.241,4.314,3.054q0,10.638,0,21.277" transform="translate(0)" fill="#767676" stroke="#707070" stroke-width="1"/></g></svg>