<svg xmlns="http://www.w3.org/2000/svg" xmlns:xlink="http://www.w3.org/1999/xlink" width="112.874" height="112.874" viewBox="0 0 112.874 112.874"><defs><clipPath id="a"><rect width="112.874" height="112.874" fill="#da0071" stroke="#fff" stroke-width="2"/></clipPath><clipPath id="b"><rect width="43.911" height="43.132" fill="#fff"/></clipPath></defs><g transform="translate(0 0)" clip-path="url(#a)"><path d="M110.947,55.725A55.224,55.224,0,1,1,55.723.5,55.225,55.225,0,0,1,110.947,55.725Z" transform="translate(0.713 0.712)" fill="#da0071"/><path d="M55.722,111.95a55.963,55.963,0,0,1-31.435-9.6A56.386,56.386,0,0,1,3.919,77.611,56.154,56.154,0,0,1,9.1,24.288,56.385,56.385,0,0,1,33.838,3.919,56.151,56.151,0,0,1,87.159,9.1a56.385,56.385,0,0,1,20.369,24.736,56.153,56.153,0,0,1-5.184,53.322,56.386,56.386,0,0,1-24.736,20.369A55.874,55.874,0,0,1,55.722,111.95Zm0-110.45a53.963,53.963,0,0,0-30.315,9.26A54.386,54.386,0,0,0,5.761,34.618a54.153,54.153,0,0,0,5,51.424,54.385,54.385,0,0,0,23.857,19.647,54.151,54.151,0,0,0,51.422-5,54.385,54.385,0,0,0,19.647-23.858,54.153,54.153,0,0,0-5-51.424A54.385,54.385,0,0,0,76.829,5.761,53.885,53.885,0,0,0,55.722,1.5Z" transform="translate(0.713 0.712)" fill="#fff"/></g><g transform="translate(35.259 35.259)"><g transform="translate(0 0)" clip-path="url(#b)"><path d="M15.2,22.776C7.252,18.422,6.531,9.505,11.685,4.2a14.7,14.7,0,0,1,19.552-.915,11.636,11.636,0,0,1,4.02,6.486,10.89,10.89,0,0,1-.97,7.45,13.27,13.27,0,0,1-5.653,5.554,22.256,22.256,0,0,1,9.723,5.694,18.272,18.272,0,0,1,5.554,13.155c.005.984-.641,1.507-1.854,1.507q-10.222,0-20.445,0H2.038C.5,43.131,0,42.688,0,41.326,0,33.063,5.975,25.7,14.98,22.872c.05-.016.1-.042.217-.1" transform="translate(0 0)" fill="#fff"/></g></g></svg>