<svg xmlns="http://www.w3.org/2000/svg" xmlns:xlink="http://www.w3.org/1999/xlink" width="87.138" height="87.028" viewBox="0 0 87.138 87.028"><defs><clipPath id="a"><rect width="87.138" height="87.028" fill="none"/></clipPath></defs><g clip-path="url(#a)"><path d="M7.847,23.7H.078c-.021-.3-.061-.6-.063-.894Q0,17.834,0,12.862C0,8.849.022,4.836,0,.824,0,.175.2,0,.838,0c7.344.02,14.689.011,22.034.014.252,0,.506.024.811.04v7.8c-.321.015-.625.042-.927.042-4.664,0-9.331.018-13.993-.015-.733-.006-.9.226-.9.923.031,4.664.02,9.329.02,13.993,0,.277-.022.555-.039.9" transform="translate(0 0)" fill="#161615"/><path d="M.045,69.105V45.454c2.489,0,4.909.008,7.328-.007.523,0,.5.322.5.666q0,2.319,0,4.639c0,3.2.021,6.391-.02,9.587-.008.732.178.965.937.959,4.639-.035,9.278-.018,13.916-.018h.965v7.825Z" transform="translate(0.018 17.919)" fill="#161615"/><path d="M45.49,7.857V.088c.314-.026.609-.071.9-.071C53.688.013,60.983.022,68.278,0c.689,0,.945.16.923.894Q69.09,4.56,69.09,8.229c0,2.464.082,4.929.1,7.394s0,4.933-.006,7.4c0,.2-.033.4-.054.654H61.356c-.015-.34-.042-.641-.042-.943,0-4.665-.013-9.331.02-14,.006-.7-.22-.859-.884-.855-4.664.026-9.329.015-13.994.013-.3,0-.607-.025-.965-.04" transform="translate(17.936 0)" fill="#161615"/><path d="M69.126,69.1H45.5V61.327c.312-.02.634-.059.956-.059,4.665,0,9.331-.015,14,.014.682,0,.876-.185.871-.869-.031-4.665-.02-9.331-.02-14,0-.3.029-.6.047-.938h7.77Z" transform="translate(17.941 17.932)" fill="#161615"/><path d="M39.828,47.669V39.821H55.5V55.486H47.7c0-.711,0-1.4,0-2.087,0-1.7-.014-3.4.008-5.1.006-.484-.12-.689-.646-.682-2.422.029-4.844.022-7.266.029Z" transform="translate(15.693 15.701)" fill="#161615"/><path d="M42.028,45.433q-.029,3.4-.057,6.8c0,.329,0,.658,0,1.043H34.156V45.457h7.9l-.025-.024" transform="translate(13.467 17.913)" fill="#161615"/><path d="M34.118,41.919c0-2.5-.008-4.918.02-7.335a.641.641,0,0,1,.425-.457c2.44-.029,4.881-.021,7.373-.021v7.814Z" transform="translate(13.452 13.446)" fill="#161615"/><path d="M35.073,18.547c0-2.137-.01-4.276-.014-6.414,0-.442-.033-.767-.658-.765-7.415.02-14.83.011-22.246.013-.245,0-.491.025-.754.04V35.067H22.36c3.944,0,7.887-.02,11.832.017.731.007.9-.224.9-.916-.025-5.206-.011-10.414-.014-15.62m-7.908,8.582H19.241V25.376c0-1.827-.014-3.654.02-5.48,0-.218.265-.615.411-.618,2.465-.038,4.93-.028,7.493-.028Z" transform="translate(4.495 4.482)" fill="#161615"/><path d="M34.119,11.412v1.655c0,7.061.008,14.121-.013,21.182,0,.658.212.818.838.813q6.68-.069,13.36-.077c2.86,0,5.718.042,8.578.061.3,0,.593-.029.912-.046V11.412Zm15.829,15.7H42.037V19.234c2.549,0,5.014-.008,7.479.021.146,0,.411.3.414.464.026,2.441.018,4.883.018,7.392" transform="translate(13.447 4.499)" fill="#161615"/><path d="M34.127,34.092c-5.067.031-10.134.014-15.2.013H11.432V57.8h.923l18.862-.042c1,0,2.006-.017,3.009.013.673.02.855-.254.852-.92q-.036-10.907,0-21.814c0-.75-.212-.944-.951-.94M27.148,49.928H25.21c-1.775,0-3.551,0-5.326,0-.356,0-.661.006-.658-.5.014-2.44.007-4.88.007-7.386h7.915Z" transform="translate(4.507 13.442)" fill="#161615"/></g></svg>