<svg xmlns="http://www.w3.org/2000/svg" xmlns:xlink="http://www.w3.org/1999/xlink" width="35.05" height="35.05" viewBox="0 0 35.05 35.05"><defs><clipPath id="a"><rect width="35.05" height="35.05" fill="#767676"/></clipPath></defs><g clip-path="url(#a)"><path d="M17.6,0A17.525,17.525,0,1,0,35.05,17.558,17.458,17.458,0,0,0,17.6,0m-.08,3.568a24.75,24.75,0,0,1,3.232,6.474c.14.41-.053.465-.4.463-2.022-.01-4.044,0-6.174,0a24.483,24.483,0,0,1,3.343-6.933m-4.536.676a27.242,27.242,0,0,0-2.277,5.77.543.543,0,0,1-.634.493c-1.516-.015-3.033-.006-4.692-.006a14.235,14.235,0,0,1,7.6-6.257M4.517,21.033c-.48.024-.656-.177-.742-.611a14.839,14.839,0,0,1,.009-5.843.59.59,0,0,1,.69-.56c1.62.024,3.241.027,4.862,0,.495-.008.522.152.471.594a23.932,23.932,0,0,0,0,5.781c.078.616-.137.654-.616.636-.747-.028-1.5-.007-2.244-.007-.81,0-1.622-.029-2.431.011m.854,3.516c1.708,0,3.3,0,4.891,0,.34,0,.367.242.436.494a28.047,28.047,0,0,0,2.288,5.763A14.319,14.319,0,0,1,5.371,24.55m15.354.534a25.077,25.077,0,0,1-3.2,6.4,24.3,24.3,0,0,1-3.346-6.934c2.123,0,4.141.01,6.16-.008.452,0,.53.134.39.542m1.011-4.621c-.052.443-.215.569-.641.566q-3.55-.024-7.1,0c-.475,0-.631-.147-.687-.622a24.982,24.982,0,0,1,0-5.775c.056-.483.227-.625.694-.614,1.183.027,2.367.009,3.551.009s2.368.016,3.55-.008c.436-.009.582.141.634.575a24.7,24.7,0,0,1,0,5.868M29.671,10.5c-1.687,0-3.233-.01-4.779.007-.436,0-.464-.257-.555-.58A28.751,28.751,0,0,0,22.06,4.239a14.341,14.341,0,0,1,7.61,6.263m-7.607,20.31a27.419,27.419,0,0,0,2.28-5.772c.1-.382.257-.5.631-.5,1.517.015,3.034.006,4.69.006a14.3,14.3,0,0,1-7.6,6.263M30.6,21.033c-1.773-.026-3.547-.01-5.431-.01a27.02,27.02,0,0,0,0-6.994c1.854,0,3.685.01,5.517-.007.438,0,.508.27.572.581a14.517,14.517,0,0,1,0,5.84c-.075.374-.2.6-.664.59" transform="translate(0 0)" fill="#767676"/></g></svg>