<svg xmlns="http://www.w3.org/2000/svg" viewBox="0 0 323.51 68.87"><defs><style>.cls-1{fill:#70c09f;}.cls-2{fill:#fff;}</style></defs><g id="Capa_2" data-name="Capa 2"><g id="Capa_1-2" data-name="Capa 1"><path class="cls-1" d="M68.87,34.43A34.44,34.44,0,1,1,34.43,0,34.44,34.44,0,0,1,68.87,34.43"/><path d="M55.7,27.71l4.16-4.52H50.64a28.78,28.78,0,0,0-32.39,0H9l4.15,4.52A12.7,12.7,0,1,0,30.36,46.42l4.08,4.43,4.07-4.43A12.7,12.7,0,1,0,55.7,27.71m-34,18a8.6,8.6,0,1,1,8.6-8.6,8.59,8.59,0,0,1-8.6,8.6m12.71-8.85c0-5.65-4.12-10.51-9.54-12.58a24.78,24.78,0,0,1,19.08,0c-5.43,2.08-9.54,6.93-9.54,12.58m12.7,8.85a8.6,8.6,0,1,1,8.59-8.6,8.6,8.6,0,0,1-8.59,8.6m0-13.1a4.51,4.51,0,1,0,4.5,4.5,4.5,4.5,0,0,0-4.5-4.5m-20.9,4.5a4.51,4.51,0,1,1-4.51-4.5,4.51,4.51,0,0,1,4.51,4.5"/><path class="cls-2" d="M102.65,27.6V23.2H95.9V49.39h6.75V33.68c0-2.84,1.82-4.23,4.67-4.23H111V23.2h-3.15a5,5,0,0,0-5.21,4.4"/><rect class="cls-2" x="113.97" y="23.2" width="6.73" height="26.18"/><path class="cls-2" d="M139.24,22.76a13,13,0,0,0-8,2.66V23.2h-6.73V57.07h6.73v-9.9a13,13,0,0,0,8,2.66,13.54,13.54,0,0,0,0-27.07m-.6,20.88A7.35,7.35,0,1,1,146,36.29a7.35,7.35,0,0,1-7.36,7.35"/><path class="cls-2" d="M269.79,34l-3.92-1.08c-2.59-.67-3.6-1.47-3.6-2.83s1.42-2.26,3.44-2.26,3.44,1.26,3.44,2.87v.15h6.21V30.7c0-4.75-3.88-7.94-9.65-7.94s-9.86,3.19-9.86,7.58c0,3.42,2.27,6,6.22,7.07l3.76,1c2.86.79,3.92,1.67,3.92,3.24s-1.53,2.77-3.82,2.77a3.66,3.66,0,0,1-4-3.75v-.15h-6.59v.15c0,5.38,4.33,9.13,10.52,9.13,6,0,10.3-3.67,10.3-8.72,0-2.47-1.11-5.71-6.39-7.11"/><path class="cls-2" d="M176.66,25.42a13,13,0,0,0-7.95-2.66,13.54,13.54,0,0,0,0,27.07,13,13,0,0,0,7.95-2.66v2.22h6.73V23.2h-6.73ZM169.3,43.64a7.35,7.35,0,1,1,7.36-7.35h0a7.36,7.36,0,0,1-7.36,7.35"/><path class="cls-2" d="M207.7,25.42a13,13,0,0,0-7.95-2.66,13.54,13.54,0,0,0,0,27.07,13,13,0,0,0,7.95-2.66v2.22h6.73V13.88H207.7Zm-7.35,18.22a7.35,7.35,0,1,1,7.35-7.35,7.36,7.36,0,0,1-7.35,7.35"/><rect class="cls-2" x="245.69" y="23.2" width="6.73" height="26.18"/><path class="cls-2" d="M291.74,22.76a13.54,13.54,0,1,0,13.54,13.53,13.53,13.53,0,0,0-13.54-13.53m0,20.88a7.35,7.35,0,1,1,7.36-7.35,7.35,7.35,0,0,1-7.36,7.35"/><path class="cls-2" d="M315.15,27.6V23.2H308.4V49.39h6.75V33.68c0-2.84,1.82-4.23,4.66-4.23h3.7V23.2h-3.16a5,5,0,0,0-5.2,4.4"/><polygon class="cls-2" points="99.2 13.88 73.38 13.88 73.38 19.89 82.94 19.89 82.94 49.38 89.64 49.38 89.64 19.89 99.2 19.89 99.2 13.88"/><polygon class="cls-2" points="229.82 42.22 223.83 23.2 216.76 23.2 225.74 49.38 233.84 49.38 242.88 23.2 235.81 23.2 229.82 42.22"/><path class="cls-2" d="M121.44,17a4.11,4.11,0,1,1-4.11-4.1,4.11,4.11,0,0,1,4.11,4.1"/><path class="cls-2" d="M253.19,17a4.11,4.11,0,1,1-4.1-4.1,4.11,4.11,0,0,1,4.1,4.1"/></g></g></svg>